<svg width="148" height="50" fill="none" xmlns="http://www.w3.org/2000/svg"><path d="M40.14 48.73c-10.75-.647-13.397-1.456-10.09-1.132 8.87.617 17.778.509 26.63-.324a129.986 129.986 0 0042.67-11.485 155.805 155.805 0 0030.102-19.25c6.782-5.5 12.405-9.544 15.713-9.544.165 0 .496.162.661.162 2.647.485 1.489 5.823-7.112 13.102-8.435 7.118-23.816 16.339-45.483 22.486a167.191 167.191 0 01-45.053 6.218c-3.093 0-5.802-.094-8.038-.233z" fill="url(#paint0_linear)"/><path d="M112.084 18.48c-7.608 8.735-15.216 14.559-14.72 15.53.331.97 12.074-3.56 23.155-13.589C131.766 10.392 133.916-.446 129.947.04c-4.135.162-10.089 9.868-17.863 18.441z" fill="#DA9BC5"/><path d="M36.645 49.539c-2.542-.23-5.247-.552-8.252-.971h-.165a98.098 98.098 0 01-15.878-3.073c-1.654-.486-2.977-.971-4.135-1.295-2.646-.97-4.63-1.617-5.623-2.103C2.003 41.791.77 40.75.77 40.75s-.643-.335 0-1.019c.644-.684 14.274 6.48 26.96 7.544 12.688 1.064 2.812.323 3.64.485 2.646.162 5.457.324 8.269.324a98.686 98.686 0 0020.674-2.265 182.368 182.368 0 0020.84-6.47 128.886 128.886 0 0016.87-7.28c1.323-.809 2.811-1.617 4.3-2.426 1.489-.81 2.812-1.78 4.3-2.427a22.405 22.405 0 013.474-1.294s.33-.162 1.157.647h.496c.119.035.231.09.331.162v1.456c-.992 2.426-8.766 7.764-12.9 9.867l-3.97 1.942a106.522 106.522 0 01-18.69 6.632c-3.638.809-7.442 1.456-11.08 1.941h-.166c-2.646.324-5.293.647-7.608.809-.63.058-1.25.112-1.86.162H36.646z" fill="url(#paint1_linear)"/><defs><linearGradient id="paint0_linear" x1="143.416" y1="29.773" x2="33.15" y2="24.632" gradientUnits="userSpaceOnUse"><stop stop-color="#97CAEB"/><stop offset=".067" stop-color="#97CAEB"/><stop offset=".177" stop-color="#7CB7DD"/><stop offset=".418" stop-color="#4791C1"/><stop offset=".626" stop-color="#2076AD"/><stop offset=".792" stop-color="#0966A0"/><stop offset=".895" stop-color="#00609C"/><stop offset="1" stop-color="#00609C"/></linearGradient><linearGradient id="paint1_linear" x1="-65.383" y1="37.837" x2="111.971" y2="37.837" gradientUnits="userSpaceOnUse"><stop stop-color="#97CAEB"/><stop offset=".267" stop-color="#97CAEB"/><stop offset=".34" stop-color="#7CB7DD"/><stop offset=".499" stop-color="#4791C1"/><stop offset=".636" stop-color="#2076AD"/><stop offset=".746" stop-color="#0966A0"/><stop offset=".814" stop-color="#00609C"/><stop offset="1" stop-color="#00609C"/></linearGradient></defs></svg>